<svg xmlns="http://www.w3.org/2000/svg" width="17" height="12.75" viewBox="0 0 17 12.75">
  <defs>
    <style>
      .cls-1 {
        fill: #fd8300;
        fill-rule: evenodd;
      }
    </style>
  </defs>
  <path id="email" class="cls-1" d="M649.406,91.25A1.587,1.587,0,0,1,651,92.844v9.562A1.588,1.588,0,0,1,649.406,104H635.594A1.588,1.588,0,0,1,634,102.406V92.844a1.587,1.587,0,0,1,1.594-1.594h13.812Zm0,1.594H635.594v1.361q1.161,0.93,4.482,3.52l0.3,0.266a8.094,8.094,0,0,0,1.062.8,1.523,1.523,0,0,0,2.125,0,8.09,8.09,0,0,0,1.063-.8l0.3-.266q3.319-2.557,4.482-3.52V92.844Zm-13.812,9.562h13.812V96.23l-3.852,3.055a9.6,9.6,0,0,1-1.361,1,3.343,3.343,0,0,1-1.693.531,3.523,3.523,0,0,1-1.727-.531,13.036,13.036,0,0,1-1.361-1l-3.818-3.055v6.176Z" transform="translate(-634 -91.25)"/>
</svg>
