<svg xmlns="http://www.w3.org/2000/svg" width="18.38" height="18.375" viewBox="0 0 18.38 18.375">
  <defs>
    <style>
      .cls-1 {
        fill: #fff;
        fill-rule: evenodd;
      }
    </style>
  </defs>
  <path id="inst" class="cls-1" d="M1070.19,22.408a4.6,4.6,0,0,1,2.36.636,4.807,4.807,0,0,1,1.72,1.723,4.73,4.73,0,0,1,0,4.717,4.808,4.808,0,0,1-1.72,1.723,4.7,4.7,0,0,1-4.72,0,4.656,4.656,0,0,1-1.72-1.723,4.666,4.666,0,0,1,0-4.717,4.655,4.655,0,0,1,1.72-1.723A4.577,4.577,0,0,1,1070.19,22.408Zm0,7.793a3.076,3.076,0,0,0,0-6.152A3.076,3.076,0,1,0,1070.19,30.2Zm6.03-8a1.1,1.1,0,1,0-1.11,1.108,1.01,1.01,0,0,0,.76-0.328A1.325,1.325,0,0,0,1076.22,22.2Zm3.11,1.108c0.03,0.766.04,2.037,0.04,3.814s-0.02,3.056-.06,3.835a7.357,7.357,0,0,1-.35,2.03,4.753,4.753,0,0,1-2.91,2.912,7.692,7.692,0,0,1-2.03.349c-0.78.041-2.06,0.061-3.83,0.061s-3.06-.02-3.84-0.061a6.728,6.728,0,0,1-2.03-.39,4.342,4.342,0,0,1-1.78-1.087,4.782,4.782,0,0,1-1.13-1.784,7.75,7.75,0,0,1-.35-2.03q-0.06-1.169-.06-3.835t0.06-3.835a7.748,7.748,0,0,1,.35-2.03,4.819,4.819,0,0,1,2.91-2.912,7.767,7.767,0,0,1,2.03-.349q1.17-.062,3.84-0.062c1.77,0,3.05.02,3.83,0.062a7.692,7.692,0,0,1,2.03.349,4.753,4.753,0,0,1,2.91,2.912A7.763,7.763,0,0,1,1079.33,23.311Zm-1.96,9.228a8.684,8.684,0,0,0,.32-2.215c0.03-.6.04-1.449,0.04-2.543V26.469c0-1.121-.01-1.969-0.04-2.543a8.282,8.282,0,0,0-.32-2.215,2.969,2.969,0,0,0-1.77-1.764,8.192,8.192,0,0,0-2.21-.328c-0.61-.027-1.45-0.041-2.55-0.041h-1.31c-1.09,0-1.94.014-2.54,0.041a8.732,8.732,0,0,0-2.22.328,2.979,2.979,0,0,0-1.76,1.764,8.614,8.614,0,0,0-.33,2.215c-0.03.6-.04,1.449-0.04,2.543v1.313c0,1.094.01,1.942,0.04,2.543a9.059,9.059,0,0,0,.33,2.215,3.117,3.117,0,0,0,1.76,1.764,8.737,8.737,0,0,0,2.22.328c0.6,0.027,1.45.041,2.54,0.041h1.31q1.68,0,2.55-.041a8.2,8.2,0,0,0,2.21-.328A3.119,3.119,0,0,0,1077.37,32.539Z" transform="translate(-1061 -17.938)"/>
</svg>
