<svg xmlns="http://www.w3.org/2000/svg" width="16.063" height="15.969" viewBox="0 0 16.063 15.969">
  <defs>
    <style>
      .cls-1 {
        fill: #fd8300;
        fill-rule: evenodd;
      }
    </style>
  </defs>
  <path id="phone" class="cls-1" d="M387.5,89.458a0.6,0.6,0,0,0-.44.25,0.788,0.788,0,0,0-.158.469,14.191,14.191,0,0,0,1.982,7.312,14.617,14.617,0,0,0,5.252,5.219,14.425,14.425,0,0,0,7.359,1.968,0.8,0.8,0,0,0,.472-0.156,0.592,0.592,0,0,0,.252-0.438l0.754-3.249a0.7,0.7,0,0,0-.062-0.5,0.674,0.674,0,0,0-.378-0.344l-3.522-1.5a0.686,0.686,0,0,0-.456-0.031,0.936,0.936,0,0,0-.425.25l-1.541,1.875A11.069,11.069,0,0,1,393.3,98.3a11.478,11.478,0,0,1-2.28-3.25L392.9,93.52a0.928,0.928,0,0,0,.252-0.422,0.678,0.678,0,0,0-.031-0.453l-1.51-3.5a0.675,0.675,0,0,0-.346-0.375,0.713,0.713,0,0,0-.5-0.062Z" transform="translate(-386.906 -88.719)"/>
</svg>
