<svg xmlns="http://www.w3.org/2000/svg" width="17.5" height="17.5" viewBox="0 0 17.5 17.5">
  <defs>
    <style>
      .cls-1 {
        fill: #fd8300;
        fill-rule: evenodd;
      }
    </style>
  </defs>
  <path id="skype" class="cls-1" d="M650.6,129.219a4.25,4.25,0,0,1,.9,2.656,4.375,4.375,0,0,1-4.375,4.375,4.25,4.25,0,0,1-2.656-.9,9.518,9.518,0,0,1-1.719.157,7.817,7.817,0,0,1-4.024-1.075,7.993,7.993,0,0,1-2.91-2.91,7.825,7.825,0,0,1-1.074-4.023,10.055,10.055,0,0,1,.156-1.719,4.251,4.251,0,0,1-.9-2.656,4.374,4.374,0,0,1,4.375-4.375,4.251,4.251,0,0,1,2.656.9,9.608,9.608,0,0,1,1.719-.156,7.825,7.825,0,0,1,4.023,1.074,7.993,7.993,0,0,1,2.91,2.91,7.819,7.819,0,0,1,1.075,4.024A9.96,9.96,0,0,1,650.6,129.219Zm-7.617,3.554a5.358,5.358,0,0,0,3.008-.82,2.928,2.928,0,0,0,1.367-2.539,2.512,2.512,0,0,0-1.172-2.149,7.245,7.245,0,0,0-2.383-.9l-0.624-.117a12.631,12.631,0,0,1-1.563-.469,0.753,0.753,0,0,1-.508-0.7q0-.86,1.641-0.859a2.774,2.774,0,0,1,1.172.234,5.511,5.511,0,0,1,.7.508,1.4,1.4,0,0,0,.469.39,1.231,1.231,0,0,0,1.464-.195,1.253,1.253,0,0,0,.333-0.9,1.864,1.864,0,0,0-1.368-1.563,7.163,7.163,0,0,0-2.988-.586,5.493,5.493,0,0,0-2.871.7,2.742,2.742,0,0,0-1.367,2.461,2.677,2.677,0,0,0,.547,1.758,2.9,2.9,0,0,0,1.406.938,14.651,14.651,0,0,0,1.992.547l0.781,0.2a4.01,4.01,0,0,1,1.094.351,0.758,0.758,0,0,1,.43.7,0.874,0.874,0,0,1-.469.761,2.3,2.3,0,0,1-1.231.293,2.569,2.569,0,0,1-1.347-.351,4.256,4.256,0,0,1-.859-0.7,2.857,2.857,0,0,0-.547-0.508,1.238,1.238,0,0,0-.665-0.2,1.06,1.06,0,0,0-.839.332,1.222,1.222,0,0,0-.293.84,1.741,1.741,0,0,0,.625,1.289,4.282,4.282,0,0,0,1.719.918A8,8,0,0,0,642.984,132.773Z" transform="translate(-634 -118.75)"/>
</svg>
