<svg xmlns="http://www.w3.org/2000/svg" width="18" height="14.625" viewBox="0 0 18 14.625">
  <defs>
    <style>
      .cls-1 {
        fill: #fff;
        fill-rule: evenodd;
      }
    </style>
  </defs>
  <path id="tw" class="cls-1" d="M1036.14,24.594A8.315,8.315,0,0,0,1038,22.66a7.939,7.939,0,0,1-2.11.6,3.651,3.651,0,0,0,1.62-2.039,7.513,7.513,0,0,1-2.36.879,4.1,4.1,0,0,0-1.21-.844,3.657,3.657,0,0,0-3.32.176,3.583,3.583,0,0,0-1.34,1.354,3.638,3.638,0,0,0-.49,1.846,4.806,4.806,0,0,0,.07.844,10.26,10.26,0,0,1-4.24-1.125,10.154,10.154,0,0,1-3.35-2.742,3.46,3.46,0,0,0-.53,1.846,3.5,3.5,0,0,0,.46,1.776,4.052,4.052,0,0,0,1.19,1.336,3.435,3.435,0,0,1-1.65-.492v0.07a3.549,3.549,0,0,0,.84,2.32,3.725,3.725,0,0,0,2.11,1.3,4.64,4.64,0,0,1-.98.105,6.692,6.692,0,0,1-.67-0.035,3.645,3.645,0,0,0,1.28,1.81,3.426,3.426,0,0,0,2.16.721,7.306,7.306,0,0,1-4.6,1.582c-0.33,0-.62-0.012-0.88-0.035a10.245,10.245,0,0,0,5.66,1.652,10.2,10.2,0,0,0,9.28-5.625,10.428,10.428,0,0,0,1.23-4.887A2.447,2.447,0,0,0,1036.14,24.594Z" transform="translate(-1020 -20.938)"/>
</svg>
